<svg viewBox="0 0 500 500" style="enable-background:new 0 0 500 500" xmlns="http://www.w3.org/2000/svg"><path style="fill:#fcebdb" d="M0 0h500v500H0z"/><g><path style="fill:#c42b27" d="M311.21 302.251c-1.1-.902-1.064-1.795.057-2.681l-.851-.642c.2-.214.413-.416.595-.643.165-.207.4-.431.424-.667.149-1.429.247-2.864.363-4.307.839-.119 1.055.015 1.004.853-.095 1.577-.549 3.197-.306 4.712.098.612.117 1.183.08 1.747a80.884 80.884 0 0 0 7.622-11.218h-7.904c.246.925.271 1.945-.083 2.61-.172.324-.677.471-1.029.7-.182-.311-.427-.603-.532-.938-.164-.525-.233-1.079-.353-1.671l.302-.702h-19.467l.859 2.22.883-.57c0 .526.113.913-.018 1.18-.919 1.863-.559 3.807-.35 5.714.243 2.22-.201 3.579-1.445 4.201l-.564-12.745h-20.783a7.353 7.353 0 0 1-.181.715c-1.248 3.818-1.568 6.686-1.12 9.896.021.16.064.373.096.608.362 2.165 1.109 6.654-1.61 7.369a2.258 2.258 0 0 1-.533.064 1.96 1.96 0 0 1-1.045-.309c-1.386-.885-1.855-3.551-2.165-5.311-.085-.427-.149-.8-.203-1.002a39.947 39.947 0 0 1-.32-1.226c-.468-1.889-1.04-4.128-2.374-5.324.078.373.154.746.234 1.119.136.637.569 1.358-.587 1.83l-.83-3.639c-.036-.011-.064-.033-.1-.043-1.866-.523-3.509-.011-5.247.533-.917.288-1.856.587-2.879.747-1.205.192-2.485.011-3.924-.555-1.12-.448-1.546-1.034-2.026-1.717a23.884 23.884 0 0 0-.469-.629c-.789-.981-1.536-1.589-2.389-2.293-.32-.267-.64-.523-.992-.832h-16.899c-.244 2.542-1.457 6.459-2.502 6.811.297-1.595.47-3.034.849-4.416.219-.8.507-1.585.816-2.395h-21.25a144.84 144.84 0 0 1-.13 4.272c-.202 4.069-.519 8.133-.81 12.197-.154 2.149-.426 4.291-.529 6.442-.019.392-.032.783-.05 1.175a80.625 80.625 0 0 0 16.309 9.877c.668-3.465 1.338-6.93 2.032-10.39.076-.378.513-.683.782-1.022.156.454.515.947.437 1.357-.674 3.531-1.393 7.052-2.097 10.577a80.067 80.067 0 0 0 31.997 6.646 80.42 80.42 0 0 0 17.623-1.966 183.176 183.176 0 0 1-1.672-5.467c-.205-.719-.031-1.546.145-2.342.968 1.817 2.178 3.476 1.864 5.725-.08.572.386 1.211.699 1.844 16.841-4.014 31.643-13.325 42.546-26.079zm-94.217 8.307c1.356.536.189 1.708.023 2.764-.479-.939-2.387-.011-2.216-1.615l2.193-1.149zm.326 6.237-1.249-1.458v3.042l-.448.212c-.279-.441-.81-.893-.79-1.32.055-1.193.338-2.375.549-3.678l2.347 2.863-.409.339zm2.324-5.198c-1.15-2.512.149-4.395.619-6.388.927 2.15.255 4.107-.619 6.388zm1.979-8.1c-1.502-1.498-1.037-4.743.755-5.785 1.829 2.23-1.172 3.705-.755 5.785zm12.174 21.483.369-2.386.568-.069.719 2.456-1.656-.001zm29.459-13.476-1.348-.206c-.539-.982.508-2.492-.843-2.996.056-.552.222-1.071.137-1.544-.363-2.03-.81-4.046-1.204-6.071-.11-.565-.143-1.145-.211-1.719l.453-.281c.313.419.79.795.914 1.264 1.023 3.861 2.02 7.73 2.928 11.619.204.874.03 1.837.03 2.759l-.48.064-.376-2.889zm2.185 7.698-1.421-1.004 1.101-1.32.674 2.171-.354.153zm10.433-18.555h-2.301l-.211-.297c.423-.332.844-.922 1.271-.926.483-.005.972.516 1.458.808-.071.138-.144.277-.217.415zm28.352-2.838.38-.138.761 2.167c-1.413-.164-1.446-.244-1.141-2.029zM200.01 298.778c-.013-.346-.077-.759.077-1.032 1.423-2.521.708-5.178.553-7.8-.011-.18-.027-.361-.042-.542h-20.795a80.883 80.883 0 0 0 8.203 11.941c-.001-.963.014-1.912.088-2.856.052-.676.796-1.298 1.224-1.945l.483.288c-.102.232-.159.625-.314.669-1.195.34-.73 1.127-.677 1.928.062.952.053 1.909.021 2.865a81.158 81.158 0 0 0 10.765 10.449c.404-2.808.485-5.682.623-8.527.085-1.804-.139-3.624-.209-5.438z" transform="matrix(1.72854 0 0 1.72854 -184.412 -184.411)"/><path style="fill:#146593" d="m239.523 286.855-.107-.587c-.064-.341-.064-.341-.459-.693-.213-.181-.512-.32-.832-.469-.608-.277-1.354-.629-1.76-1.44-.192-.405-.235-.746-.267-1.034-.032-.309-.053-.491-.267-.725-.8-.928-2.176-1.461-3.509-1.994a21.182 21.182 0 0 1-1.696-.715l-.448-.224c-2.016-1.013-3.754-1.877-6.004-2.336-.906-.181-1.813-.011-2.773.16-1.354.245-2.762.501-4.127-.32a68.395 68.395 0 0 1-2.303-1.461c-1.738-1.13-3.381-2.197-5.257-2.965-.363-.149-.757-.267-1.184-.395-1.6-.48-3.604-1.077-3.359-3.69.032-.373.171-.725.299-1.034.117-.267.235-.544.224-.736-.011-.149-.085-.309-.171-.512-.117-.267-.267-.597-.277-.992-.053-1.653 1.653-2.378 3.018-2.954.608-.267 1.184-.512 1.536-.789 2.218-1.792 4.66-5.225 4.831-8.051.053-.96-.48-1.781-1.056-2.666-.181-.277-.373-.565-.544-.864-.565-.992-.704-1.781-.576-2.666h-7.697l-.037.351c-.398 3.822-.727 7.651-1.15 11.47-.511 4.617-.434 9.23-.347 13.868.065 3.458-.727 6.924-.947 10.398-.139 2.2-.173 4.406-.217 6.612h21.25c.233-.611.477-1.234.718-1.897.174.359.2 1.053.119 1.897h16.899l-.181-.149c-1.012-.905-1.14-1.385-1.342-2.398zm-29.096.669c-.378-.068-.634-.807-.946-1.243l2.288-.528c-.014 1.414-.575 1.909-1.342 1.771zm14.016-.763c-1.251-2.016.298-4.073-.112-6.141 1.449.263 1.544 3.315.112 6.141zM200.579 288.512c.27-3.146.614-6.287.84-9.436.282-3.926.494-7.858.699-11.789.154-2.947.185-5.902.391-8.845.186-2.659.508-5.309.82-7.957.236-2.004.27-2-1.266-3.41l.195-.37h-4.382c-.189.159-.376.319-.572.469-.726.557-1.436 1.138-2.194 1.65-.562.38-1.188.665-1.786.993l-.262-.357c.602-.619 1.143-1.316 1.818-1.842.4-.312.812-.609 1.219-.912h-4.778c-.291 3.233.812 6.593-.451 9.788l-.427-.029c.101-1.209.258-2.416.291-3.627.05-1.815-.053-3.635.03-5.447.01-.229.033-.457.046-.686h-21.26a81.817 81.817 0 0 0-.084 3.295 80.015 80.015 0 0 0 10.338 39.404h20.795a5.125 5.125 0 0 1-.02-.892zm-12.371-32.249.408.008v4.774l-.408-.001v-4.781zm-12.185-4.938c-.259-1.073-.475-1.798-.581-2.539-.022-.158.329-.471.56-.54.359-.108.762-.068 1.589-.118l-1.568 3.197zm12.361 14.346c1.669 1.441.632 3.119.738 4.809-1.256-.76-1.256-.76-.738-4.809zm1.692 9.434-1.54-3.109 1.383-.622c.944 1.197.53 2.418.157 3.731zm.258-6.273c-.927-3.43-.04-6.515.004-9.596 1 3.073.778 6.152-.004 9.596zM325.273 249.216c-.635-.796-.421-1.649-.177-2.511h-39.803c-.352.821-.427 1.546-.107 2.634.107.384.224.746.341 1.098.405 1.205.779 2.335.715 3.765-.043.874-.299 1.525-.544 2.165-.181.469-.352.906-.427 1.429-.181 1.098.213 2.271.597 3.402.064.203.128.395.192.587.107.309.256.693.427 1.109.597 1.472 1.344 3.306.8 4.66-.32.768-.821 1.258-1.482 1.44-1.525.416-3.37-1.003-4.852-2.133-.522-.395-1.013-.768-1.29-.896-1.205-.576-2.495-.533-3.636.117-1.216.682-2.016 1.952-2.144 3.391-.053.555.064 1.173.181 1.834.149.842.299 1.717.117 2.549-.32 1.408-1.354 1.792-2.186 2.112-.352.128-.672.256-.96.437-.427.288-.64.779-.875 1.344-.224.523-.48 1.109-.949 1.557-.672 1.397-.928 2.57-.8 3.647.107.928.405 1.706.704 2.463.448 1.173.906 2.389.597 3.988h20.783l-.011-.257.512-.093.136.35h19.467l.766-1.777c.409.382.735 1.051.929 1.777h7.904a80.317 80.317 0 0 0 4.823-10.172c-.168-1.887.1-3.806.601-5.742l.44.006c-.05 1.125-.103 2.249-.153 3.374a80.141 80.141 0 0 0 4.627-26.871 80.01 80.01 0 0 0-.084-3.295h-4.708c.424.81-.442 1.67-.471 2.512zm-25.723 11.041c-1.443-.329-1.722-1.643-2.159-2.834 1.423.328 1.138 2.136 2.159 2.834zm-6.848-7.825c.088-.63-1.063-1.61.267-1.837.281-.048.762 1.07 1.145 1.654.048.074.068.166.208.527l2.109-.587 1.141 2.108c-1.562-.072-2.775.029-3.891-.254-.462-.117-1.05-1.103-.979-1.611zm1.472 4.289c-.144-.723-.144-.723 2.686-2.054-.075 1.597-.848 2.147-2.686 2.054zm4.719 9.701.107-1.461-1.698-.369c.685-1.181.92-1.127 3.011.723l-1.42 1.107zm4.702.785 2.028 3.122c-1.417.453-2.019-.399-2.028-3.122zm2.155 4.736.497-.19.784 2.111c-1.589-.219-1.288-1.143-1.281-1.921zm11.004-8.449-.302-.423 1.794-1.213c.27 1.509-.715 1.445-1.492 1.636zm3.534-9.384c1.765 1.028 1.717 2.905 2.479 4.528-2.003-.724-2.71-2.062-2.479-4.528zm6.078 16.269c-.188.446-.773.724-1.178 1.078a84.625 84.625 0 0 0-.358-.272l.345-2.952c.63.664 1.66 1.031 1.191 2.146zm-3.375-15.138c.051-1.624 1.055-2.383 2.889-2.183.155 1.808-.893 2.6-2.889 2.183z" transform="matrix(1.72854 0 0 1.72854 -184.412 -184.411)"/><path style="fill:#dd9622" d="M191.263 239.903c.04-.84-.151-1.693-.265-2.537-.126-.933.238-1.465 1.456-1.636l-.749 8.696 1.822 1.264-2.151.498a9.956 9.956 0 0 0-.056.517h4.778c1.222-.911 2.46-1.802 3.679-2.718.431-.324.761-.786 1.199-1.1.857-.615 1.725-1.228 2.649-1.731.711-.387 1.067-.81 1.074-1.681.02-2.396.108-4.795.281-7.185.052-.714.474-1.401.727-2.1l.604.114c0 .64.057 1.286-.009 1.919-.502 4.828-1.038 9.653-1.542 14.48h7.697a7.34 7.34 0 0 1 .267-1.205l.107-.352c.373-1.226.544-1.781.107-2.997-.011-.021-.544-1.845-.128-2.826.075-.416.288-.768.48-1.066.235-.384.384-.629.363-.928-.053-.64-.458-1.472-.821-2.218a13.932 13.932 0 0 1-.341-.725c-.192-.437-.416-.874-.65-1.344-.405-.8-.821-1.61-1.088-2.442-.491-1.461.181-2.336.778-3.114.192-.256.395-.512.565-.8.459-.768.555-1.493.661-2.335.075-.533.149-1.077.309-1.674l.002-.007-2.206.565c.724-.855 1.603-1.186 2.525-1.371.633-1.298 1.817-2.344 3.378-2.92.619-.224 1.226-.288 1.813-.352.608-.064 1.184-.117 1.696-.352.842-.395 1.621-1.226 2.346-2.048.352-.395.651-.8.938-1.205.352-.48.715-.97 1.141-1.418l-.053-.096c.128-.064.245-.139.373-.203a5.15 5.15 0 0 1 1.365-.906l.011.032c1.962-1.429 3.306-3.327 4.17-5.865.96-2.794 1.855-4.116 4.948-5.087 1.221-.38 2.35-.755 3.422-1.133l1.602-9.51c.941 2.193.303 4.175-.135 6.127-.233 1.035-.483 2.047-.623 3.078a68.205 68.205 0 0 0 4.714-1.922c.284-.13.564-.277.844-.422l-2.853-12.595-.223-.07-.684 2.847-.446-.061c.136-2.092.564-4.217.326-6.265-.231-1.992-1.144-3.904-1.783-5.933 1.088-.337 1.899-.116 1.812.75-.228 2.264 1.023 4.06 1.573 6.073.364 1.333.377 2.759.686 4.112.432 1.889 1.06 3.734 1.485 5.624.373 1.658.734 3.32 1.086 4.983a65.301 65.301 0 0 0 2.676-1.645c1.493-.96 3.029-1.952 4.671-2.698.736-.331 3.263-1.354 4.991-.533.682.32 1.162.906 1.376 1.696.395 1.472-.715 2.133-1.248 2.442-.629.373-1.29.704-1.919 1.024-.757.373-1.546.768-2.271 1.226-3.272 2.104-5.7 4.414-7.274 6.879-.036.137-.066.274-.108.412l-.041-.18c-.304.496-.587.996-.821 1.505-.757 1.632-1.386 3.946-1.077 5.428.224 1.045 1.184 1.674 2.207 2.346l.299.192c.192.139.373.245.544.341.8.491 1.429.874 1.6 2.25.064.49.096.949.139 1.397.075 1.024.149 1.994.501 3.007 1.258 3.604 4.383 5.353 9.811 5.492 2.544.067 6.09.446 8.805 2.703.286-.296.642-.58.707-.919.436-2.276 1.138-2.783 3.83-2.34-.419.533-.715 1.277-1.094 1.323-1.23.146-1.648 1.113-2.342 1.841-.188.197-.458.318-.734.431.171.158.35.296.513.47.544.587 1.045 1.237 1.514 1.866.533.693 1.034 1.344 1.589 1.909.736.768 2.325 1.237 3.487 1.578l.331.096c1.056.32 2.197.458 3.295.597 1.536.192 3.125.395 4.618 1.066a3.34 3.34 0 0 1 1.888 2.058c.544 1.653-.064 3.658-.811 4.991-.277.501-.512.917-.672 1.322h39.803c.05-.178.101-.356.147-.535.248.175.406.354.501.535h4.708a80.177 80.177 0 0 0-3.171-19.32c-.202 2.187-.418 4.372-.632 6.558-1.024-3.142-.815-6.272-.26-9.4a80.323 80.323 0 0 0-2.356-6.225 46.32 46.32 0 0 0-.387-.193l.154-.303.007-.002c-12.445-28.433-40.836-48.357-73.806-48.357-15.689 0-30.333 4.526-42.728 12.317v3.582c-1.266-.382-1.254-.375-.214-3.445a81.023 81.023 0 0 0-7.084 5.037c-.011.23-.022.465-.022.709a2.89 2.89 0 0 1-.62-.204 81.483 81.483 0 0 0-4.426 3.877c-.913 6.787-1.257 13.408-1.449 20.039-.201 6.948-.562 13.892-.853 20.837l-.694.013c-.056-2.641-.192-5.284-.147-7.923.063-3.703.19-7.408.418-11.104.305-4.965.732-9.922 1.113-14.881.013-.173.182-.361.144-.506-.411-1.526-.537-3.046-.52-4.563a81.127 81.127 0 0 0-5.457 6.083c.724.155 1.443.341 2.164.51l-.006.433c-.547 0-1.098.046-1.639-.01-.908-.094-1.413-.021-1.657 1.15-1.172 5.619-2.501 11.205-3.782 16.801-.046.203-.179.386-.271.578l-.471.014c-.099-1.101-.447-2.248-.254-3.294.705-3.809 1.519-7.599 2.319-11.39a80.465 80.465 0 0 0-7.426 13.158l.493.849-.451-.11c-.201.371-.354.784-.62 1.101a1.106 1.106 0 0 1-.322.235 79.965 79.965 0 0 0-5.989 27.349h21.26c.123-2.263.341-4.527.45-6.797zm56.442-30.863c2.595 2.194 1.543 5.408 2.222 8.115-1.916-2.407-1.63-5.376-2.222-8.115zm2.559 10.317.425-.109.758 2.977c-1.651-.621-.993-1.859-1.183-2.868zm5.32-11.444-2.497-.433c1.235-.943 1.789-.887 2.598.001a45.91 45.91 0 0 1-.101.432zm69.852 37.189-.341.008c-.636-2.732-.514-5.486-.054-8.249l.395-.004v8.245zm-.501-14.469c1.451.856.394 2.158.395 3.271l-.345.061-.573-3.24.523-.092zm-13.932-9.333.545-.126 1.509 1.858-2.054.903V221.3zm-12.112-34.527.347-.016.132 2.545-.479.019v-2.548zm-4.467 1.827-.307 4.794c-1.697-1.557-.742-3.296-1.386-4.905l1.693.111zm-8.238 8.403 2.357.324.035.702-2.392 1.117v-2.143zm-11.741 37.975v-7.207c1.137 1.462 1.346 5.017 0 7.207zm.393-11.949-1.218 3.297c-1.078-1.038-.649-2.052-.444-3.089.193-.975.215-1.985.323-3.097.425.914.837 1.806 1.339 2.889zm-3.206-7.216.207-.032 1.449 4.021c-.371-.348-.499-.43-.572-.546-.087-.139-.126-.307-.282-.712l-.522 1.443-3.512-10.03c.592.527 1.103.771 1.247 1.154.296.786.284 1.692.605 2.463.334.799.91 1.497 1.38 2.239zm-1.512-8.204c-1.23-1.275-1.444-2.683-.926-4.24l.926 4.24zm-2.606-22.399c.021-1.841.241-3.679.375-5.519 1.473 3.194-.129 6.481.518 9.707-1.323-1.235-.909-2.77-.893-4.188zm-.773 9.107c.999-.257 1.338.435 1.517 1.131.362 1.408.662 2.835.894 4.269.07.437-.167.923-.262 1.387l-.276-.206c-.2-.513-.296-1.107-.618-1.526-1.166-1.514-1.552-3.182-1.255-5.055zm-4.331 20.085 1.691.319-.592 1.9-.466.012-.893-1.888c.087-.113.173-.228.26-.343zm-29.779-27.67c1.456.606 1.658 1.059 1.439 3.36-1.622-.052-1.776-.429-1.439-3.36zm-2.216-7.044c1.382.739.921 2.034 1.055 3.495-2.699-.697-.588-2.443-1.055-3.495zm-1.191.186-.464.189-.825-2.113c1.571.222 1.383 1.096 1.289 1.924zm-7.814 29.047 1.268-1.629 1.114 1.629h-2.382zm3.482-24.9c-1.206.316-1.834-.109-2.007-1.227-.135-.876-.263-1.753-.395-2.637 1.463.323 2.257 1.59 2.402 3.864zm-3.505 5.62c1.117-.118 1.002.449.754 1.127-.206.561-.375 1.134-.754 1.728v-2.855zm-.515 3.669.434-.052c.059.694.305 1.434.145 2.073-.554 2.209-1.54 4.319-1.245 6.7.04.321-.383.7-.591 1.052a232.58 232.58 0 0 0-.62-.215l1.877-9.558zm-12.241 27.462 1.344-.227c-.6.764.079 2.056-1.439 2.096l.095-1.869zm-1.807-18.438c.039-.152.125-.292.296-.68.177.378.292.504.274.607a16.92 16.92 0 0 1-.368 1.697c-.01.035-.381-.028-.584-.046.127-.527.247-1.054.382-1.578zm-3.148 29.711c-.392.611-.962 1.106-1.646 1.858l-1.78-1.386 1.472-2.898c.71.314 1.541.59 2.238 1.062.156.106-.037.981-.284 1.364zm-.783-17.679 1.343 1.331-2.983 2.512-.386-.388 2.026-3.455zm-4.119-21.979c1.192.283 1.59 1.564 1.46 4.834-1.589-.772-1.857-1.714-1.46-4.834zm.608 26.746c1.239.065 1.447.466.918 1.461-.268.505-.325 1.119-.506 1.674-.359 1.097-.738 2.188-1.108 3.281l-.694-.19c.454-2.039.91-4.078 1.39-6.226zm-3.608 11.982c1.066.328 1.066.328.894 2.051-1.117-.382-1.135-.419-.894-2.051zm-7.52-5.43-.365-.515 1.759-1.43c.196.338.594.703.553 1.01-.172 1.33-1.245.727-1.947.935z" transform="matrix(1.72854 0 0 1.72854 -184.412 -184.411)"/><path style="fill:#dd9622" d="M203.991 242.443c-.758.257-1.645.344-2.246.804-1.28.979-2.41 2.154-3.607 3.243-.083.076-.175.142-.262.215h4.382l2.029-3.852a61.054 61.054 0 0 1-.296-.41z" transform="matrix(1.72854 0 0 1.72854 -184.412 -184.411)"/><path style="fill:#146593" d="m198.328 174.936 2.058-1.381-4.44-20.48 9.458 14.091-1.961 1.316 1.398 2.082 5.956-3.998-1.398-2.082-1.731 1.162-9.369-13.958 1.731-1.162-1.552-2.312-5.508 3.697 4.741 19.803-1.764-1.279v2.878l2.381 1.623zM178.737 164.819l9.369 13.958-1.743 1.17 1.398 2.082 5.956-3.998-1.398-2.082-1.889 1.268-9.483-14.127 13.691 9.332c.151-.505.387-.998.46-1.514.047-.333.08-.667.121-1l-4.841-3.511a2.764 2.764 0 0 1-1.229-.472c-.169-.114-.301-.399-.31-.611l-.001-.033-7.586-5.502-5.811 3.9 1.552 2.312 1.744-1.172zM220.422 163.707l-.71-2.406-2.181.644.113-2.764c-.038-.025-.076-.054-.116-.074l.082-.506.057.009.08-1.958 8.153-2.405 3.097 4.316-1.762.52.709 2.405 6.881-2.029-.71-2.406-2.126.627-12.13-16.852-4.126 1.216-1.057 20.742-1.846.545.71 2.405 6.882-2.029zm4.593-14.298.612.164c-.109.498-.192 1.006-.362 1.482-.021.059-.507-.047-.777-.076l.527-1.57zm-6.707-5.752 6.097 8.508-6.545 1.93.448-10.438zM238.855 139.654l.036.928a8.934 8.934 0 0 1 1.165-.173c.48-.031.972.131 1.459.207-.322.548-.572 1.163-.994 1.618-.228.246-.751.218-1.211.331v1.368c-.087 0-.186.003-.289.008l.496 12.774-2.098.081.098 2.506 8.217-.319a10.4 10.4 0 0 0 2.87-.505 10.395 10.395 0 0 0 2.506-1.213 10.42 10.42 0 0 0 2.074-1.817c.615-.7 1.131-1.471 1.552-2.314.419-.843.733-1.741.939-2.692.206-.951.29-1.942.248-2.972a11.521 11.521 0 0 0-.477-2.907 11.188 11.188 0 0 0-1.144-2.589 10.542 10.542 0 0 0-1.725-2.158 10.667 10.667 0 0 0-2.208-1.629 10.408 10.408 0 0 0-5.492-1.29l-8.218.319.098 2.52 2.098-.082zm6.294-.245a6.49 6.49 0 0 1 2.903.544c.166.073.324.157.482.241l.11-1.789c1.11.529.828 1.18.609 1.876-.031.097-.045.199-.07.298.463.309.896.665 1.291 1.081a8.679 8.679 0 0 1 1.693 2.626 9.366 9.366 0 0 1 .71 3.299c.048 1.204-.102 2.336-.45 3.395-.35 1.06-.844 1.988-1.483 2.786a7.558 7.558 0 0 1-2.283 1.92 6.378 6.378 0 0 1-2.851.782l-3.438.133-.662-17.06 3.439-.132zM264.631 140.097l.896.169-.904 4.789.682.506c-.321.211-.616.466-.906.678l-2.039 10.803-2.063-.389-.466 2.464 15.559 2.937 1.158-6.132-2.937-.555-.692 3.668-7.751-1.463 1.39-7.364 5.46 1.031c.26-.674.62-1.302 1.237-1.807l.237-.193.05-.264-6.518-1.23 1.311-6.948 7.751 1.463-.693 3.667 2.937.555 1.16-6.146-11.95-2.255a4.055 4.055 0 0 1-.863.416c-.755.249-1.372.918-2.046 1.6zM292.035 166.25l-1.911-.871 7.088-15.533 1.91.872 1.047-2.295-6.42-2.929-1.047 2.295 1.91.871-7.087 15.533-1.91-.872-1.042 2.281 6.421 2.93zM319.92 168.288l1.1-1.533c-.054-.226-.12-.455-.162-.671-.04-.208-.075-.417.126-1.005.304.152.607.305.911.456l.093-.13.812.583c.266.133.533.266.798.4l1.389-1.935-5.827-4.183-1.472 2.049 2.013 1.445-1.712 2.384c.115.252.213.509.257.783.14.861.819 1.429 1.674 1.357zM317.265 167.632c-.039-.106-.068-.221-.099-.334l-.207.288.306.046zM317.132 171.952c-.133-1.047-.806-1.756-1.485-2.538l-4.635 6.456-.503.5 1.055-9.106c-.459.275-1.459-.006-1.671-.852-.044-.174.047-.538.141-.563.281-.072.746-.14.864.008.295.372.46.848.677 1.31l1.262-10.893c-.096-.224-.188-.451-.291-.672-.03-.065-.071-.126-.103-.19l-4.376-3.142-1.487 2.072 1.705 1.225-9.957 13.869-1.658-1.19-1.462 2.037 5.827 4.184 1.462-2.037-1.848-1.326 9.226-12.85-2.338 20.882 3.031 2.177 6.653-9.267c-.046-.029-.084-.059-.089-.094zM147.14 294.762c.547-.205 1.483-.551 1.659-.34.486.583.852 1.407.913 2.164.073.909-.546 1.179-1.958.939l.972-2.434-.352-.293c-.862.96-1.916 1.809-2.547 2.902l-.037.067c.021.161.023.322.051.483a11.576 11.576 0 0 0 1.051 3.185c.609 1.229 1.353 2.287 2.231 3.174a11.763 11.763 0 0 0 2.872 2.152c1.036.547 2.124.913 3.264 1.101 1.14.187 2.281.193 3.423.017l-1.051-5.537a6.102 6.102 0 0 1-1.68-.108 6.518 6.518 0 0 1-1.668-.575 6.34 6.34 0 0 1-1.485-1.042 5.328 5.328 0 0 1-1.133-1.547 5.68 5.68 0 0 1-.616-2.667c.018-.912.22-1.789.605-2.633a8.204 8.204 0 0 1 1.648-2.35 9.338 9.338 0 0 1 2.536-1.811 9.18 9.18 0 0 1 2.966-.906c.223-.027.443-.044.661-.055.043-.264.293-.404 1.063-.874.595-.363 1.112-.856 1.758-1.365.016.123.075.267.043.387-.091.345-.218.68-.493.792l-1.565 1.053c.484.02.956.082 1.415.186a6.632 6.632 0 0 1 2.472 1.116 5.606 5.606 0 0 1 1.734 2.076 6.86 6.86 0 0 1 .597 1.755c.113.597.113 1.205.001 1.825-.113.621-.433 1.412-.959 2.375l2.313 4.667 5.105-2.53-1.677-3.383c.402-1.466.547-2.698.435-3.697-.112-.998-.474-2.116-1.088-3.354-.769-1.551-1.795-2.845-3.081-3.882a12.37 12.37 0 0 0-4.278-2.254c-1.566-.465-3.209-.63-4.928-.493-1.719.136-3.4.611-5.041 1.425a14.084 14.084 0 0 0-2.97 1.961c-.525.454-.995.943-1.437 1.449.182.142.362.285.574.441-.413.404-.845.496-1.275.427-.049.066-.108.126-.155.192a13.013 13.013 0 0 0-1.56 2.908 12.196 12.196 0 0 0-.75 3.156c-.04.397-.038.795-.037 1.193.166-.236.328-.475.497-.71.228-.314.598-.592.962-.728zm1.703-2.737c.234-.517.725-.913 1.065-1.388.622-.87 1.367-1.694 1.784-2.657.431-.995.773-1.822 2.055-1.464.117-1.29 1.04-2.07 2.802-2.385-.121 2.35-2.624 3.046-3.404 5.096-.645 1.697-3.018 2.68-3.433 4.948-1.21-.422-1.275-1.253-.869-2.15zM189.446 315.567a11.672 11.672 0 0 0-2.032-2.679 11.559 11.559 0 0 0-2.691-2.003 12.03 12.03 0 0 0-2.864-1.085c-.016.019-.025.042-.041.061v-.073c-.045-.011-.088-.03-.134-.04a12.426 12.426 0 0 0-3.226-.29 12.82 12.82 0 0 0-3.245.557 14.16 14.16 0 0 0-5.902 3.584 13.97 13.97 0 0 0-2.169 2.811 14.168 14.168 0 0 0-1.351 3.111 12.844 12.844 0 0 0-.528 3.25 12.277 12.277 0 0 0 .319 3.223 12.033 12.033 0 0 0 1.163 3.028c.312.571.692 1.106 1.106 1.624l.224-.948c.45.272 1.22.48 1.289.828.116.583-.107.947-.611 1.146l.019.022a11.646 11.646 0 0 0 2.697 2.009 11.96 11.96 0 0 0 3.045 1.142c1.054.238 2.129.334 3.226.29a13.076 13.076 0 0 0 3.251-.551 14.001 14.001 0 0 0 5.897-3.566 14.057 14.057 0 0 0 2.174-2.817 13.93 13.93 0 0 0 1.351-3.123c.313-1.074.487-2.16.522-3.257a12.307 12.307 0 0 0-.319-3.222 11.95 11.95 0 0 0-1.17-3.032zm-9.754-5.601.38-.112c.183.449.632 1.041.486 1.313-.226.421-.859.622-1.319.917l-.274-.316.727-1.802zm5.735 11.692a8.089 8.089 0 0 1-.81 2.769 9.626 9.626 0 0 1-1.824 2.535 9.587 9.587 0 0 1-2.495 1.835 8.07 8.07 0 0 1-2.744.84 6.526 6.526 0 0 1-2.701-.256 5.773 5.773 0 0 1-2.354-1.444 5.677 5.677 0 0 1-1.447-2.324 6.545 6.545 0 0 1-.274-2.692 8.29 8.29 0 0 1 .804-2.763 9.284 9.284 0 0 1 1.801-2.523 9.45 9.45 0 0 1 2.524-1.841 8.32 8.32 0 0 1 2.621-.812c.026-.085.053-.17.075-.256.071.081.151.151.229.224a6.506 6.506 0 0 1 2.532.26c.871.27 1.65.746 2.337 1.426a5.695 5.695 0 0 1 1.447 2.323c.276.869.37 1.769.279 2.699zM198.904 337.785l.381-.161c.249.413.718.83.71 1.237-.047 2.338-.178 4.676-.321 7.011l6.569-12.839 2.401 1.228 2.112-4.126-9.739-4.984-1.301 2.543c.93.766.842 1.554.631 2.322l.915.468-7.425 14.511-2.356-1.206-2.104 4.112 9.069 4.641c.096-4.627.183-9.255.284-13.882.006-.293.113-.583.174-.875z" transform="matrix(1.72854 0 0 1.72854 -184.412 -184.411)"/><path style="fill:#146593" d="m199.211 352.933 8.354 4.275 4.277-8.358-4.862-2.488-1.559 3.046c-.067.13-.166.25-.297.359a1.974 1.974 0 0 1-.432.271 1.408 1.408 0 0 1-.48.124.84.84 0 0 1-.44-.083l-4.253-2.176c-.12 1.312-.257 2.623-.288 3.937-.009.364-.012.728-.02 1.093zM244.934 345.719a13.101 13.101 0 0 0-1.464-2.954 12.287 12.287 0 0 0-2.131-2.44 11.94 11.94 0 0 0-2.712-1.792 11.71 11.71 0 0 0-3.21-1.002 11.642 11.642 0 0 0-3.354-.07c-1.094.141-2.139.42-3.135.838s-1.928.963-2.795 1.635a12.835 12.835 0 0 0-2.32 2.337 14.15 14.15 0 0 0-2.726 6.345 13.934 13.934 0 0 0-.135 3.548c.107 1.156.342 2.262.705 3.317a12.829 12.829 0 0 0 1.456 2.954 12.258 12.258 0 0 0 2.13 2.44 11.98 11.98 0 0 0 2.705 1.791c.991.481 2.059.814 3.201 1.001 1.142.186 2.263.21 3.362.071a12.05 12.05 0 0 0 3.143-.836c.096-.04.184-.097.279-.14a3.33 3.33 0 0 0-.655-.168c.65-.853 1.151-.877 1.627-.318a12.56 12.56 0 0 0 1.544-1.011 13.166 13.166 0 0 0 2.329-2.335 13.988 13.988 0 0 0 2.731-6.326 13.994 13.994 0 0 0-.575-6.885zm-5.113 5.954a9.624 9.624 0 0 1-.968 2.942 8.033 8.033 0 0 1-1.745 2.277 6.503 6.503 0 0 1-2.349 1.359c-.872.284-1.79.348-2.755.191a5.664 5.664 0 0 1-2.527-1.053 6.557 6.557 0 0 1-1.786-2.034 8.31 8.31 0 0 1-.949-2.717 9.317 9.317 0 0 1 .003-3.099 9.442 9.442 0 0 1 .988-2.964c.483-.901 1.071-1.662 1.765-2.283a6.517 6.517 0 0 1 2.34-1.36 5.687 5.687 0 0 1 2.732-.195 5.67 5.67 0 0 1 2.526 1.053 6.649 6.649 0 0 1 1.793 2.035c.466.81.781 1.719.948 2.725a9.69 9.69 0 0 1-.016 3.123zM292.181 352.937l-4.012-15.799 2.304-.584-1.141-4.494-10.342 2.626-2.241 19.596-11.842-16.019-10.195 2.589 1.141 4.494 2.304-.585 4.013 15.798-2.304.585 1.137 4.477 9.312-2.365-1.137-4.477-1.845.469-3.494-13.756 12.104 16.022 4.591-1.166 2.737-20.313 3.618 14.247-1.698.431 1.137 4.477 9.263-2.352-1.137-4.477-2.273.576zm-12.43 6.789-.611-1.345.652-.368c.253.397.534.782.718 1.208.022.049-.493.331-.759.505zM322.34 329.364c-.677-.911-1.448-1.539-2.313-1.883-.864-.345-1.797-.482-2.794-.412.345-.873.45-1.762.315-2.67-.135-.907-.572-1.857-1.309-2.849a7.754 7.754 0 0 0-2.251-2.055 7.551 7.551 0 0 0-2.773-1.005 7.74 7.74 0 0 0-2.991.144c-1.016.244-1.989.711-2.917 1.402l-10.018 7.403 2.785 3.748 2.097-1.559 9.723 13.083-2.096 1.558 2.755 3.707 10.295-7.652a7.961 7.961 0 0 0 2.103-2.286c.526-.875.857-1.8.994-2.775a7.754 7.754 0 0 0-.181-2.985c-.259-1.013-.733-1.985-1.424-2.914zm-14.26 1.526-3.419-4.6 3.22-2.393c.252-.188.544-.296.873-.324.329-.027.661.009.996.11.334.102.655.256.962.461.307.206.564.449.773.728.215.289.371.604.47.943.098.34.143.678.133 1.013-.009.336-.08.651-.211.944a1.796 1.796 0 0 1-.576.723l-3.221 2.395zm10.3 5.198a1.781 1.781 0 0 1-.586.751l-3.41 2.534-3.549-4.776 3.41-2.534c.252-.188.539-.306.859-.355.321-.049.646-.031.975.053.328.085.648.232.958.443.31.21.591.482.838.817.234.315.411.657.53 1.024.118.367.176.723.174 1.067a2.53 2.53 0 0 1-.199.976zM331.858 315.171l-8.2-6.97 1.747-2.056-3.519-2.991-7.085 8.336 3.519 2.992 1.714-2.017 9.743 8.282c-.134-.683-.293-1.37-.174-2.005.216-1.163.049-2.042-.957-2.81l1.151-1.383c1.292 2.251 1.244 4.456.585 6.712l2.085 1.773-1.714 2.016 3.52 2.991 7.085-8.336-3.519-2.991-1.747 2.055-2.838-2.413-1.42.617c.006-.611.015-1.211.024-1.802zM353.113 290.107l-18.603-2.821c-.014.132-.032.264-.046.396a101.57 101.57 0 0 0-.35 4.451l8.356 1.367-2.313 4.61-6.054-5.801c-.085 1.397-.16 2.794-.259 4.19l-.128 1.758 10.189 10.202-.854 1.703 4.128 2.07 4.346-8.664-4.128-2.07-1.209 2.41-2.77-2.672 3.522-7.021 3.799.624-1.141 2.276 4.128 2.07 4.346-8.663-4.128-2.07-.831 1.655zM333.071 287.116c0-.016.004-.032.004-.048l-1.73-.262-3.03 6.042 4.43 4.436c.26-3.379.408-6.765.326-10.168zM307.594 140.561a123.61 123.61 0 0 1 5.711 3.213c.551-.112 1.136-.199 1.79-.327 1.244 1.482 2.668.804 4.176.289a126.879 126.879 0 0 0-13.457-7.674c.207.554.412 1.109.63 1.659.379.949.765 1.894 1.15 2.84zM168.305 342.792c.183.269.696.616-.177.669.325.177.792.277.94.55.204.376.269.897.209 1.331-.104.743-.394 1.486.415 1.575-.092.328-.207.662-.32.997a127.52 127.52 0 0 0 14.669 10.451 4235.4 4235.4 0 0 0 1.751-2.677 124.446 124.446 0 0 1-17.487-12.896zM127.534 232.615c2.968-21.009 11.225-40.341 23.39-56.592-.007-.853.004-1.706.055-2.555.06-.997.134-1.993.215-2.988-14.758 18.302-24.544 40.768-27.289 65.335.766-.74 1.561-1.455 2.343-2.178.395-.366.838-.688 1.286-1.022zM167.017 343.056l.514-.951c-.253-.227-.508-.45-.759-.678l-1.053 1.474-.268-.187v-2.516a124.719 124.719 0 0 1-8.93-9.276 5.727 5.727 0 0 0-.075.597 52.988 52.988 0 0 0-.12 3.989 128.106 128.106 0 0 0 9.786 9.614c.585-.636 1.068-1.256.905-2.066zM138.068 303.428c-.122.466-.064 1.003.007 1.493.285 1.945.285 2.894-.276 4.293.136.256.269.513.406.768.787-1.072 1.297-2.283 1.76-3.516a123.942 123.942 0 0 1-1.777-3.601c-.041.187-.07.376-.12.563zM368.203 213.524a123.278 123.278 0 0 1 5.215 44.629c.591.139 1.198.234 1.759.45.569.219 1.123.505 1.418-.006.041-.609.084-1.217.116-1.829l-.44-.067c.051-.535.223-.886.491-1.09.021-.469.038-.938.054-1.407l-1.062.119c-.296-1.411-.241-2.956-1.666-3.848 1.614.634 2.042 2.136 2.732 3.627.043-1.363.073-2.728.073-4.101 0-11.326-1.5-22.307-4.297-32.763a45.324 45.324 0 0 1-2.014-1.609c-.802-.692-1.59-1.4-2.379-2.105zM373.373 259.78h.805l-.797-1.049c-.025.352-.047.705-.074 1.056.023-.001.042-.007.066-.007zM367.547 211.485l.387.273-.246-1.932c1.024.31 1.164.935 1.097 1.756-.027.325.055.787.272.983.998.904 2.002 1.802 3.005 2.701a125.694 125.694 0 0 0-3.627-10.812l-2.23 3.138c.47 1.288.913 2.588 1.342 3.893zM362.352 193.797c-.132.349-.549.763-.457.997.644 1.634 1.388 3.23 2.105 4.835.009.021.083.013.263.035l.575-1.812.399-.105c.095.436.423 1.052.247 1.278-1.27 1.632-.161 3.126.111 4.735.838-.069 1.779.221 2.54-.089a126.363 126.363 0 0 0-5.998-13.005l.274 2.479c.025.215.015.455-.059.652zM318.392 145.312c-.573-.174-1.37.098-1.972.374a.03.03 0 0 0-.008.004 124.79 124.79 0 0 1 7.593 5.256c.131-.419.275-.837.408-1.256l.478.003c.03.663.079 1.327.071 1.987 14.984 11.452 27.282 26.243 35.776 43.255-.208-2.145-.487-4.288.228-6.423-.267-.479-.531-.96-.803-1.435a1.203 1.203 0 0 1-.263-.455 127.866 127.866 0 0 0-39.897-42.404v.025c.319 1.701-.475 1.415-1.611 1.069zM152.093 174.499c22.641-29.292 58.106-48.193 97.907-48.193.157 0 .313.005.47.006.051-.887.108-1.774.195-2.658.018-.18.04-.359.058-.538-.241-.001-.481-.009-.723-.009-13.13 0-25.8 2.005-37.721 5.724.137.218.25.495.388.711-.319.175-.626.468-.961.504-.882.094-1.485-.039-1.85-.427-22.563 7.544-42.321 21.265-57.259 39.147-.033.494-.055.991-.097 1.484a273.747 273.747 0 0 1-.407 4.249zM372.841 264.49c-3.573 30.477-18.262 57.604-39.9 77.197-.098.312-.39.677-.879 1.202l-.03-.395c-.293.26-.583.522-.878.779.274 1.15.637 2.27.951 3.395a127.888 127.888 0 0 0 24.987-28.67c-.137-.138-.231-.27-.213-.384.194-1.262.273-2.733.99-3.672.643-.842 1.728-1.384 2.776-1.878a125.955 125.955 0 0 0 15.273-46.318c-.895-.387-1.803-.755-2.733-1.045a1.154 1.154 0 0 1-.344-.211zM154.382 330.3c.034-.614.046-1.229.06-1.844a124.125 124.125 0 0 1-13.751-20.616c-.454.866-.752 1.762.112 2.934l-1.231-.184-.429 1.094a127.529 127.529 0 0 0 3.078 5.214v-.49l.345-.214c.277.344.768.687.772 1.034.002.254-.214.51-.432.766a127.678 127.678 0 0 0 11.548 15.416c-.076-1.036-.13-2.072-.072-3.11zM186.705 356.233c-.024.255-.05.51-.089.764-.032.21-.158.441-.311.592-.449.443-.842.918-1.214 1.406a126.571 126.571 0 0 0 13.084 6.825c.021-1.163.049-2.325.071-3.488a123.554 123.554 0 0 1-11.541-6.099z" transform="matrix(1.72854 0 0 1.72854 -184.412 -184.411)"/><path style="fill:#146593" d="M358.5 315.743c.274-.451.538-.909.807-1.363-.068.053-.151.096-.208.157-.294.309-.468.74-.599 1.206zM136.867 299.984c-6.783-15.294-10.561-32.205-10.561-49.984 0-5.16.323-10.245.939-15.24-.46.893-1.324 1.441-2.043 1.393-.6.694-1.041 1.279-1.517 1.776-.377 3.975-.578 8-.578 12.072 0 20.208 4.756 39.323 13.195 56.298.123-1.39.249-2.779.374-4.169l.191-2.146zM330.201 344.089a124.59 124.59 0 0 1-10.666 8.157c.295.825.019 1.439-1.173 3.817-.712-1.276-.281-2.211.195-3.158a123.174 123.174 0 0 1-35.175 16.208l.435.249c-.55.642-.846 1.221-.034 1.343.177.573.347 1.039.473 1.486a125.888 125.888 0 0 0 18.971-7.018l-.079-.652c.228.096.446.231.657.381a127.226 127.226 0 0 0 26.92-17.07c.081-1.247-.147-2.485-.524-3.743zM306.156 139.805c-.079-.199-.181-.392-.302-.419-1.513-.348-1.066-1.556-1.281-2.554-.121-.565-.343-1.107-.58-1.646a125.555 125.555 0 0 0-4.423-1.991c.044.254.058.567.052.965-.863-.4-2.277-.01-2.012-1.774-.739-.3-1.481-.594-2.226-.88-.294.193-.67.365-.946.562l-.526-.27c.247-.261.385-.485.445-.684-13.35-4.997-27.759-7.803-42.789-7.987a80.808 80.808 0 0 0-.502 3.193c19.811.168 38.526 5.009 55.09 13.485z" transform="matrix(1.72854 0 0 1.72854 -184.412 -184.411)"/><path style="fill:#146593" d="m282.626 370.629-.442-.012 1.13-1.485A123.379 123.379 0 0 1 250 373.694c-1.819 0-3.627-.048-5.427-.126.079.332.153.665.225 1l-.323.107-.546-1.131a122.809 122.809 0 0 1-44.893-10.843l-.052 3.473c15.621 6.887 32.878 10.72 51.017 10.72 11.553 0 22.746-1.561 33.39-4.467a1.5 1.5 0 0 0-.076-.324c-.193-.505-.456-.984-.689-1.474z" transform="matrix(1.72854 0 0 1.72854 -184.412 -184.411)"/><path style="fill:#146593" d="M330.597 354.776a131.55 131.55 0 0 1-5.584 4.078c-.297.301-.594.601-.89.903.001.025-.002.048-.001.073l1.04.972-1.564 1.564-2.31-.519c.316-.321.755-.67 1.068-1.109.033-.046.055-.103.086-.151a132.147 132.147 0 0 1-16.536 9.246c-.047.222-.104.44-.201.636-.15.304-.53.494-.803.737-.139-.232-.34-.455-.456-.69a131.266 131.266 0 0 1-18.801 6.849c.097.229.246.472.425.728.2.287.134.76.189 1.149l-.661.152c-.137-.632-.321-1.261-.451-1.893a131.927 131.927 0 0 1-35.146 4.749c-24.67 0-47.78-6.797-67.567-18.607-.303.647-.605 1.294-.913 1.937a133.888 133.888 0 0 0 23.056 10.894c.016-.021.035-.042.05-.063.014.033.034.066.052.099a133.192 133.192 0 0 0 22.957 6.001l-.23-.326.725-.865c.271.31.761.627.752.929-.004.145-.115.286-.255.426a134.732 134.732 0 0 0 21.374 1.707c24.15 0 46.829-6.407 66.436-17.605.372-.336.683-.734.931-1.006.018.146.041.287.063.43a134.589 134.589 0 0 0 11.445-7.473v-1.919c.286.313.481.865.566 1.506.351-.258.704-.512 1.053-.774-.196-.845-.165-1.77.101-2.765zM369.882 309.812l.454-.049a133.297 133.297 0 0 0 12.039-36.586l-.518-.768c-.143.075-.309.105-.343.189-.332.822-.616 1.664-.97 2.476-.13.297-.402.537-.637.775-.008.009-.095-.04-.182-.099a132.82 132.82 0 0 1-.9 4.213c.069.814.084 1.811.053 3.059l-.836.128a131.35 131.35 0 0 1-10.727 27.849l.394.743c-.357.511-.724.645-1.114.62a132.487 132.487 0 0 1-9.846 15.61c.346.411.754.758 1.212.991.161.082.279.248.386.437a134.65 134.65 0 0 0 11.676-19.003c-.028-.018-.066-.028-.092-.049a96.969 96.969 0 0 1-.049-.536zM380.24 273.017c-.102.579-.214 1.155-.323 1.732.737-.652.715-1.2.323-1.732zM250 117.751c.442 0 .881.012 1.321.017.085-.71.17-1.42.259-2.13-.527-.006-1.052-.02-1.58-.02-35.63 0-68.062 13.943-92.137 36.654l.467.691-.411 1.221-2.482 3.008c-.579-.787-.501-1.537-.307-2.275-.336.335-.665.677-.997 1.016-.142 1.186-.295 2.37-.459 3.553 24.141-25.675 58.391-41.735 96.326-41.735zM137.896 320.08c-.024.467-.048.934-.13 1.391-.021.119-.437.167-.67.247-.027-.347-.112-.701-.064-1.038.049-.344.227-.669.348-1.002l.256-.015c-12.596-20.243-19.884-44.116-19.884-69.662 0-12.649 1.788-24.888 5.12-36.481-.113-.052-.227-.105-.34-.154l.084-.533c.146.026.293.05.439.074a131.797 131.797 0 0 1 18.227-38.113l.168-1.354.666-.073c.014.053.031.105.047.157a133.298 133.298 0 0 1 9.85-12.246 103.55 103.55 0 0 0 .229-3.381 135.226 135.226 0 0 0-6.465 7.377v2.1a653.35 653.35 0 0 1-1.46-.288 134.872 134.872 0 0 0-4.481 6.052l.641 1.599-.267.332c-.384-.257-.834-.465-1.206-.731a134.155 134.155 0 0 0-14.033 26.4c.232.172.453.379.646.646l-.857-.097c-.191.49-.376.982-.562 1.474 1.272 1.037.342 1.833.433 2.91-1.202-.945-.586-1.747-.507-2.714-5.492 14.648-8.504 30.499-8.504 47.042 0 36.972 15.009 70.502 39.253 94.823-.117-1.138-.234-2.275-.353-3.413a132.948 132.948 0 0 1-16.624-21.329zM382.249 250c0 2.038-.053 4.063-.145 6.078.43.069.862.132 1.292.201.226.036.441.135.662.204a9.797 9.797 0 0 1-1.995.531c-.013.252-.033.502-.048.753.348-.275 1.035-.45 2.172-.542.127-2.393.196-4.802.196-7.226 0-2.273-.058-4.532-.17-6.777-.002-.001-.006-.001-.008-.003-.287-.205-.488-.625-.555-.985-.014-.077.231-.216.482-.338a134.135 134.135 0 0 0-2.124-17.076c-.854-.655-1.71-1.306-2.563-1.963A132.414 132.414 0 0 1 382.249 250z" transform="matrix(1.72854 0 0 1.72854 -184.412 -184.411)"/><path style="fill:#146593" d="m323.861 359.652.261.181-.037-.038.038-.038a3.913 3.913 0 0 1 .004-.288c-.089.06-.177.123-.266.183zM356.106 331.469l.051.83a136.94 136.94 0 0 0 1.54-2.01 132.97 132.97 0 0 1-.33-.272l-1.261 1.452zM354.743 330.64a133.4 133.4 0 0 1-22.064 22.497 22.308 22.308 0 0 0-.423 2.364c-.028.246-.045.492-.065.738.42-.326.839-.653 1.255-.983-.063-.027-.121-.042-.188-.078.766-.594 1.255-1.037 1.81-1.367.055-.033.128-.036.207-.029a134.824 134.824 0 0 0 3.361-2.868c-.242-.654-.372-1.301-.324-1.875l1.798.568a135.368 135.368 0 0 0 6.809-6.617 4.14 4.14 0 0 0-.285-.308l.663-.083a135.54 135.54 0 0 0 7.303-8.34c.01-.052.015-.106.028-.157.291-1.183.271-2.329.115-3.462zM156.896 343.828c.131 1.114.271 2.243.42 3.39a135.282 135.282 0 0 0 23.004 17.65c.131-.532.349-1.209.663-2.1a133.114 133.114 0 0 1-24.087-18.94zM301.269 128.095c-.313-.516-.398-1.177-.462-1.929 1.433.26.953 1.422 1.115 2.211a132.645 132.645 0 0 1 37.706 24.472l.004-.017a.584.584 0 0 0 .017.036c.417.385.833.769 1.245 1.159l.431-.669.119 1.192a133.213 133.213 0 0 1 18.875 22.602l.012.001a.221.221 0 0 0 .005.025 131.563 131.563 0 0 1 18.779 44.174c.353.14.735.215.999.316.581.628 1.081 1.274 1.638 1.831a133.744 133.744 0 0 0-1.951-8.308l-1.111.759-.377-.034c.151-.756.06-1.802.521-2.186.132-.11.315-.159.522-.179a133.42 133.42 0 0 0-4.159-12.38c-.826-.156-.951.302-1.296 1.978-.055-.055-.132-.101-.163-.167-.838-1.808-.833-1.804 1.064-2.804a137 137 0 0 0-1.166-2.822l-.119-.036.033-.16c-20.255-47.178-66.767-80.51-121.043-81.509a27.475 27.475 0 0 1-.132 2.131c17.304.305 33.809 3.944 48.894 10.313zM381.965 258.549a133.89 133.89 0 0 1-.365 4.557c1.08.288.843 1.554 1.08 2.345.307 1.023-.106 1.436-1.571 1.907-.023.174-.049.346-.073.52l2.284-.961c.365-2.896.63-5.823.808-8.773-.102.012-.195.03-.317.028-.602-.014-1.21.213-1.846.377zM200.458 315.471l-.078 1.848a83.716 83.716 0 0 0 15.86 9.213l.298-1.544a81.99 81.99 0 0 1-16.08-9.517zM198.413 186.141a2.253 2.253 0 0 1 .008-.316c.041-.408.38-.786.584-1.178.178.185.406.357.594.539 12.486-9.723 27.85-15.922 44.604-17.087h11.581c41.569 2.89 74.606 36.716 76.248 78.605.053 1.088.075 2.186.075 3.295a81.861 81.861 0 0 1-6.093 31.071c.198.906.403 1.811.494 2.741a83.157 83.157 0 0 0 7.163-33.812c0-11.54-2.349-22.542-6.593-32.554-.046.059-.097.118-.136.177-.156-.412-.423-.815-.452-1.236-.007-.093-.012-.187-.018-.28-13.034-29.293-42.397-49.779-76.472-49.779-21.096 0-40.378 7.864-55.111 20.793.049.605.147 1.213.245 1.821a84.164 84.164 0 0 1 3.279-2.8zM188.507 304.396c-.151.172-.336.344-.473.523 0-.365-.005-.72-.009-1.078a82.279 82.279 0 0 1-10.077-14.438c-6.409-11.699-10.056-25.125-10.056-39.404 0-1.109.021-2.208.075-3.295.682-17.385 6.784-33.371 16.646-46.344.052-.801.426-1.134.95-1.225a82.515 82.515 0 0 1 7.48-8.253c.07-.781.161-1.562.256-2.343-16.569 15.298-26.971 37.184-26.971 61.46 0 27.017 12.883 51.069 32.815 66.377a15.04 15.04 0 0 1 .175-1.79 82.523 82.523 0 0 1-10.811-10.19z" transform="matrix(1.72854 0 0 1.72854 -184.412 -184.411)"/><path style="fill:#146593" d="M322.052 289.404c-10.975 20.021-30.055 34.965-52.828 40.429.169.489.338.978.505 1.468 24.977-6.062 45.597-23.354 56.203-46.215.016-.1.035-.2.047-.299.017.033.026.067.043.1.16-.347.317-.694.472-1.043a10.823 10.823 0 0 1-.863-1.852 81.43 81.43 0 0 1-3.579 7.412zM268.562 331.483c-.152-.465-.299-.931-.45-1.396a82.37 82.37 0 0 1-18.118 2.017c-11.473 0-22.394-2.36-32.311-6.611-.102.518-.209 1.035-.309 1.553A83.202 83.202 0 0 0 250 333.672c6.39 0 12.606-.744 18.589-2.107-.008-.028-.018-.055-.027-.082z" transform="matrix(1.72854 0 0 1.72854 -184.412 -184.411)"/><path style="fill:#146593" d="M312.575 300.622a7.665 7.665 0 0 1-.492 2.224 5.962 5.962 0 0 1-.873-.595c-10.903 12.754-25.705 22.065-42.549 26.078.057.114.11.229.152.342.143.385.277.773.412 1.161 22.773-5.464 41.852-20.407 52.828-40.429h-1.854a80.847 80.847 0 0 1-7.624 11.219zM188.006 301.345a80.936 80.936 0 0 1-8.203-11.941h-1.854a82.385 82.385 0 0 0 10.077 14.438c-.009-.847-.019-1.679-.02-2.497zM199.594 312.745a81.158 81.158 0 0 1-10.765-10.449c-.018.545-.036 1.09-.07 1.633-.01.16-.117.314-.251.468a82.59 82.59 0 0 0 10.81 10.191c.019-.12.027-.239.051-.359.094-.491.154-.989.225-1.484zM250 330.535a80.067 80.067 0 0 1-31.997-6.646l-.32 1.604c9.917 4.251 20.838 6.611 32.311 6.611a82.37 82.37 0 0 0 18.118-2.017 336.85 336.85 0 0 1-.489-1.518A80.48 80.48 0 0 1 250 330.535zM200.542 313.49c-.03.66-.056 1.321-.084 1.982a82.04 82.04 0 0 0 16.08 9.517l.313-1.622a80.67 80.67 0 0 1-16.309-9.877zM169.465 250c0-1.105.039-2.201.084-3.295h-1.582a67.734 67.734 0 0 0-.075 3.295c0 14.279 3.647 27.705 10.056 39.404h1.854A80.014 80.014 0 0 1 169.465 250zM330.535 250a80.146 80.146 0 0 1-4.627 26.871c-.043.969-.084 1.939-.114 2.908-.013.415.122.837.212 1.251l.009.041A81.858 81.858 0 0 0 332.108 250c0-1.109-.021-2.208-.075-3.295h-1.582a80.01 80.01 0 0 1 .084 3.295z" transform="matrix(1.72854 0 0 1.72854 -184.412 -184.411)"/><path style="fill:#146593" d="M320.198 289.404h1.854a81.575 81.575 0 0 0 3.58-7.412c-.331-.91-.529-1.83-.612-2.759a80.226 80.226 0 0 1-4.822 10.171zM199.975 186.956a81.023 81.023 0 0 1 7.084-5.037l.214-.634v.496c12.394-7.791 27.039-12.317 42.728-12.317 32.97 0 61.361 19.924 73.806 48.357l1.512-.329.328 1.636-1.615-.808a79.917 79.917 0 0 1 2.356 6.225c.052-.293.103-.587.16-.88l.432-.182c.195.362.583.739.555 1.083-.077.941-.168 1.88-.255 2.82a80.07 80.07 0 0 1 3.171 19.32h1.582c-1.642-41.889-34.68-75.715-76.248-78.605h-11.581c-16.754 1.165-32.119 7.364-44.604 17.087.146.141.27.288.312.456.102.405.085.846.063 1.312zM186.682 199.171c.262.04.52.106.779.161a81.324 81.324 0 0 1 5.457-6.083c.009-.79.054-1.578.125-2.366a82.637 82.637 0 0 0-7.48 8.253c.333-.057.722-.026 1.119.035zM175.537 219.355c-.162.09-.336.171-.495.264-.133-.334-.434-.705-.369-.994.204-.911.545-1.79.888-2.852l.876 1.508a80.497 80.497 0 0 1 7.426-13.158c.154-.732.31-1.463.462-2.195.091-.439.279-.878.269-1.314-.002-.095.011-.168.017-.253-9.862 12.973-15.965 28.959-16.646 46.344h1.582a80.041 80.041 0 0 1 5.99-27.35zM195.7 190.314l-.748.639c-.018.129-.028.256-.045.384a81.106 81.106 0 0 1 4.426-3.877c-.599-.274-.896-.718-.92-1.319a82.462 82.462 0 0 0-3.279 2.8c.071.441.142.883.195 1.323l.371.05zM149.635 253.321c.111 1.021.125 2.052.183 3.078l-.482.143c-.215-.598-.56-1.183-.623-1.797-.323-3.142-.134-6.414-.971-9.404-.425-1.518-.512-3.044-.586-4.565l-2.074-4.202-4.362 8.838-9.753 1.417.33.322c1.286.224 2.62-.485 3.359 1.061-.682-.183-1.489.104-2.25.021l5.618 5.476-1.666 9.714 8.724-4.586 8.724 4.586-1.666-9.714 7.058-6.88-9.754-1.417-.736-1.492c.01.444.011.888.025 1.332.083 2.697.61 5.378.902 8.069zM338.51 246.831l1.375 1.34c.013-.515.03-1.031.043-1.546l-1.418.206zM343.157 246.542c-.093 1.161-.274 2.224-.232 3.277.021.535.149 1.065.287 1.595l2.356 2.296-1.666 9.714 6.82-3.586c.204-3.124.525-6.208.793-6.805.318 2.184.216 4.29-.008 6.392l1.118-.588 8.724 4.586-1.666-9.714 7.058-6.88-9.754-1.417-4.234-8.578c-.155 1.718-.372 3.431-.559 5.147-.042.384-.057.771-.084 1.158l-.595-.039c.11-1.652.213-3.305.335-4.956l-2.822 5.718c1.174.446 1.681 1.929 1.179 4.066l-1.412-3.593-.532 1.078-4.056.589.211.263-1.261.277zm13.81 8.899-.008.221-2.443 1.531-.808-1.538 3.259-.214zm-8.037-6.767c1.683-.019 2.492-1.068 3.001-2.694l.914 3.744.352-.073-.908 2.635c-2.149.597-3.812-.371-3.359-3.612zM341.395 211.3l-3.842.558 3.712 3.619c-.384-1.051-.341-2.5.13-4.177zM351.389 217.744c-1.822.363-2.766 1.533-2.983 3.332l.057.03 2.926-3.362z" transform="matrix(1.72854 0 0 1.72854 -184.412 -184.411)"/><path style="fill:#146593" d="M348.485 218.321c.788-1.354 2.057-1.665 3.786-1.308-.165-1.005-.354-1.768-.392-2.538a2.675 2.675 0 0 1 .326-1.366c.393-.703.805-1.396 1.221-2.086l-1.724-.251-3.34-6.768-3.34 6.768-2.601.378c-.041.63-.077 1.26-.096 1.891-.035 1.15-.015 2.303-.01 3.458l.643.627-1.276 7.439 3.102-1.631c.235-.864.374-1.79.601-2.717 1.336-.013 2.384-.665 3.1-1.896zM351.752 219.805a56.678 56.678 0 0 0-.95 2.531l4.24 2.229-1.121-6.538c-.462.36-.93.714-1.407 1.062-.283.205-.641.422-.762.716zM327.037 193.911l.73-.384c-.152-.41-.297-.823-.453-1.231l-.277 1.615zM325.173 185.754l.442-.203c.468.659.828 1.372 1.144 2.108l1.157 1.127-.221 1.286c.181.473.37.942.582 1.4.225.484.357 1.006.463 1.542l2.898-1.524 4.602 2.419-.879-5.124 3.723-3.629-5.145-.748-2.301-4.662-2.301 4.662-5.145.748 1.052 1.025c-.023-.141-.061-.295-.071-.427zM149.144 222.496l2.745-1.443 6.68 3.512-1.276-7.439.276-.269c-1.718-1.691-1.354-3.911-2.091-5.717-.046-.113-.073-.234-.115-.348l-.135-.02-3.34-6.768-2.186 4.428c-.155 4.292-.303 8.584-.483 12.875-.014.397-.043.793-.075 1.189zM148.4 218.985c-.013-1.426-.274-2.852-.259-4.277.014-1.3.103-2.601.175-3.901l-1.367.199-1.937 3.971c-1.532-.45.011-2.367-1.035-2.964l.796-.691-3.692.536 5.405 5.268-1.276 7.439 2.836-1.491c.028-.236.061-.475.089-.71.129-1.122.275-2.253.265-3.379zM157.832 216.602l4.866-4.743-5.71-.83c.025.063.041.131.068.193.745 1.672 1.152 3.375.776 5.38zM164.49 191.832c.37-.023.667-.106.93-.045.488.112.86.406 1.086.812l2.107-1.108 4.602 2.419-.879-5.124 3.723-3.629-5.145-.748-2.301-4.662-2.301 4.662-5.145.748 3.723 3.629-.879 5.124.023-.012.811-1.185c-.039-.094-.171-.422-.355-.881z" transform="matrix(1.72854 0 0 1.72854 -184.412 -184.411)"/></g></svg>